<svg xmlns="http://www.w3.org/2000/svg" xmlns:xlink="http://www.w3.org/1999/xlink" width="37" height="31" viewBox="0 0 37 31">
  <defs>
    <style>
      .cls-1 {
        clip-path: url(#clip-Web_1920_1);
      }

      .cls-2 {
        fill: #fff;
        stroke: #fff;
        font-size: 20px;
        font-family: BookmanOldStyle, Bookman Old Style;
      }

      .cls-3 {
        fill: none;
      }

      .cls-4, .cls-5 {
        stroke: none;
      }

      .cls-5 {
        fill: #fff;
      }
    </style>
    <clipPath id="clip-Web_1920_1">
      <rect width="37" height="31"/>
    </clipPath>
  </defs>
  <g id="Web_1920_1" data-name="Web 1920 – 1" class="cls-1">
    <text id="Z" class="cls-2" transform="translate(7 19)"><tspan x="0" y="0">Z</tspan></text>
    <g id="Path_1" data-name="Path 1" class="cls-3" transform="translate(1 1)">
      <path class="cls-4" d="M17.5,0C27.165,0,35,6.716,35,15S27.165,30,17.5,30,0,23.284,0,15,7.835,0,17.5,0Z"/>
      <path class="cls-5" d="M 17.5 1 C 8.401870727539062 1 1 7.280370712280273 1 15 C 1 22.71962928771973 8.401870727539062 29 17.5 29 C 26.59812927246094 29 34 22.71962928771973 34 15 C 34 7.280370712280273 26.59812927246094 1 17.5 1 M 17.5 0 C 27.16497993469238 0 35 6.715730667114258 35 15 C 35 23.28426933288574 27.16497993469238 30 17.5 30 C 7.835020065307617 30 0 23.28426933288574 0 15 C 0 6.715730667114258 7.835020065307617 0 17.5 0 Z"/>
    </g>
    <text id="A" class="cls-2" transform="translate(16 26)"><tspan x="0" y="0">A</tspan></text>
  </g>
</svg>
